HIERARCHY
ROOT hip
{
  OFFSET 0 0 0
  CHANNELS 6 Xposition Yposition Zposition Zrotation Xrotation Yrotation
  JOINT abdomen
  {
    OFFSET 0.382895 7.23034 -0.0131712
    CHANNELS 3 Zrotation Xrotation Yrotation
    JOINT chest
    {
      OFFSET -0.00014019 16.533 -0.765569
      CHANNELS 3 Zrotation Xrotation Yrotation
      JOINT neck
      {
        OFFSET -0.000935256 36.4659 -4.32784
        CHANNELS 3 Zrotation Xrotation Yrotation
        JOINT head
        {
          OFFSET 0 10.451 2.78238
          CHANNELS 3 Zrotation Xrotation Yrotation
          End Site
          {
            OFFSET 0 13.6483 2.8643
          }
        }
      }
      JOINT lCollar
      {
        OFFSET 3.05824 30.965 -6.75914
        CHANNELS 3 Zrotation Xrotation Yrotation
        JOINT lShldr
        {
          OFFSET 15.0645 0.0677185 -0.441112
          CHANNELS 3 Zrotation Xrotation Yrotation
          JOINT lForeArm
          {
            OFFSET 29.6373 0.773616 0.573952
            CHANNELS 3 Zrotation Xrotation Yrotation
            JOINT lHand
            {
              OFFSET 27.1742 0.781669 2.11781
              CHANNELS 3 Zrotation Xrotation Yrotation
              End Site
              {
                OFFSET 8.97646 -0.320343 0.148499
              }
            }
          }
        }
      }
      JOINT rCollar
      {
        OFFSET -3.05827 30.965 -6.75913
        CHANNELS 3 Zrotation Xrotation Yrotation
        JOINT rShldr
        {
          OFFSET -15.0645 0.0677032 -0.441067
          CHANNELS 3 Zrotation Xrotation Yrotation
          JOINT rForeArm
          {
            OFFSET -29.6374 0.773639 0.574028
            CHANNELS 3 Zrotation Xrotation Yrotation
            JOINT rHand
            {
              OFFSET -27.1742 0.781677 2.11789
              CHANNELS 3 Zrotation Xrotation Yrotation
              End Site
              {
                OFFSET -8.97646 -0.320343 0.148529
              }
            }
          }
        }
      }
    }
  }
  JOINT lThigh
  {
    OFFSET 8.73786 0 0
    CHANNELS 3 Zrotation Xrotation Yrotation
    JOINT lShin
    {
      OFFSET -0.21864 -43.6387 -2.09098
      CHANNELS 3 Zrotation Xrotation Yrotation
      JOINT lFoot
      {
        OFFSET -0.769398 -43.3017 -5.75582
        CHANNELS 3 Zrotation Xrotation Yrotation
        JOINT lToe
        {
          OFFSET 2.46991 -8.89869 14.0045
          CHANNELS 3 Zrotation Xrotation Yrotation
          End Site
          {
            OFFSET -0.0327001 -0.0137969 4.57021
          }
        }
      }
    }
  }
  JOINT rThigh
  {
    OFFSET -8.73786 0 1.74046e-005
    CHANNELS 3 Zrotation Xrotation Yrotation
    JOINT rShin
    {
      OFFSET 0.218533 -43.6387 -2.09099
      CHANNELS 3 Zrotation Xrotation Yrotation
      JOINT rFoot
      {
        OFFSET 0.769259 -43.3017 -5.75565
        CHANNELS 3 Zrotation Xrotation Yrotation
        JOINT rToe
        {
          OFFSET -2.37052 -8.8846 14.0306
          CHANNELS 3 Zrotation Xrotation Yrotation
          End Site
          {
            OFFSET 0.0327168 0 4.57023
          }
        }
      }
    }
  }
}
MOTION
Frames:	6
Frame Time:	0.0333333
-9.01222e-005 95.3724 2.7064 3.05043 -4.54979e-006 -8.53774e-005 -0.520213 3.58118 -0.037168 -2.17749 11.6828 0.392233 2.73444 -7.24408 5.97343 -7.11839 -17.1855 6.94716 -9.3739 -0.124398 -1.74221 -54.1265 21.2183 5.66182 1.44034 0.374104 -28.9442 23.4268 -23.5719 4.5878 9.3739 -0.124371 1.7422 52.6917 28.2197 1.03064 -1.18241 0.362524 23.9736 -2.95895 -47.2415 24.861 -2.00758 -5.55786 9.5115 -1.46952 9.68489 0.145677 1.60738 -5.82178 -1.19819 0.0389902 -0.108831 9.99937 -8.52587 3.12444 -28.9752 2.22909 14.5033 -0.315532 -5.7344 -4.93589 -0.00262163 2.49545e-005 -5.97642e-006 -9.99999 
0.297528 96.5731 2.37272 3.02704 0.982695 3.2688 -0.492039 3.59828 -0.0577916 -2.05389 11.7521 0.318301 2.68334 -7.39578 5.85472 -6.87494 -16.9418 6.81629 -9.3739 -0.124414 -1.74221 -54.281 21.1286 5.60036 1.44034 0.374114 -28.9442 23.4268 -23.5719 4.58782 9.37389 -0.124402 1.74221 52.4578 28.2302 1.14061 -1.18242 0.362532 23.9735 -2.95895 -47.2415 24.861 -1.87873 -5.87677 9.00534 -1.55034 10.2059 0.160772 1.55401 -5.81277 -1.0767 0.0389792 -0.10884 9.99938 -8.33835 3.00701 -28.2593 2.19477 14.2896 -0.306523 -5.88329 -4.89314 -0.0188419 1.30042e-005 -3.18055e-015 -9.99999 
0.193945 96.5824 2.35142 3.05994 0.909099 3.24481 -0.46373 3.6157 -0.0784213 -1.9297 11.8224 0.244452 2.63196 -7.54775 5.7354 -6.6321 -16.6984 6.68344 -9.3739 -0.1244 -1.74221 -54.4358 21.0388 5.53688 1.44033 0.374109 -28.9442 23.4268 -23.5719 4.58781 9.37389 -0.124374 1.7422 52.2223 28.2391 1.25198 -1.18243 0.36252 23.9735 -2.95891 -47.2415 24.861 -1.75251 -6.19858 8.49825 -1.6318 10.729 0.176715 1.49488 -5.80388 -0.955786 0.0389929 -0.108837 9.99937 -8.14912 2.8924 -27.5424 2.16048 14.0758 -0.297654 -6.03491 -4.84793 -0.0340484 5.76753e-006 -1.70755e-006 -9.99999 
0.0623195 96.5857 2.33039 3.09291 0.837433 3.22434 -0.435317 3.63337 -0.099059 -1.80496 11.8938 0.170662 2.58027 -7.70005 5.61548 -6.38975 -16.4553 6.5487 -9.3739 -0.124398 -1.7422 -54.5907 20.9489 5.47152 1.44035 0.374101 -28.9442 23.4268 -23.5719 4.58781 9.3739 -0.124374 1.7422 51.9854 28.2465 1.36457 -1.18242 0.362526 23.9735 -2.95894 -47.2415 24.861 -1.62902 -6.52314 7.99033 -1.71383 11.254 0.193501 1.42998 -5.79508 -0.835615 0.0389805 -0.108843 9.99937 -7.95828 2.78063 -26.8246 2.12626 13.8619 -0.288923 -6.18921 -4.80014 -0.048208 1.16856e-005 -2.56132e-006 -9.99998 
-0.114113 96.5902 2.30309 3.12965 0.702763 3.20077 -0.406773 3.6513 -0.119707 -1.67972 11.9661 0.0969078 2.52827 -7.85264 5.49501 -6.14791 -16.2126 6.41211 -9.3739 -0.124412 -1.74221 -54.7457 20.859 5.40443 1.44033 0.374096 -28.9442 23.4268 -23.5719 4.58781 9.3739 -0.124381 1.74221 51.7473 28.2525 1.47828 -1.18243 0.362528 23.9735 -2.95892 -47.2415 24.861 -1.50828 -6.85031 7.48169 -1.79646 11.7808 0.211148 1.35931 -5.78668 -0.71634 0.0389728 -0.108843 9.99937 -7.76584 2.67173 -26.1058 2.09205 13.6478 -0.280324 -6.34605 -4.74982 -0.061264 8.66944e-006 0 -10 
-0.311047 96.5883 2.24741 3.16548 0.593828 3.11702 -0.378142 3.66945 -0.140365 -1.55401 12.0391 0.0231569 2.47596 -8.00542 5.37403 -5.90656 -15.9702 6.2737 -9.37389 -0.124412 -1.7422 -54.9009 20.7691 5.33573 1.44034 0.374096 -28.9442 23.4268 -23.5719 4.5878 9.3739 -0.124366 1.74221 51.5079 28.2571 1.59302 -1.18242 0.362532 23.9736 -2.95893 -47.2415 24.861 -1.39033 -7.17995 6.9724 -1.87965 12.3092 0.229663 1.28285 -5.77879 -0.59812 0.0389826 -0.108838 9.99937 -7.57188 2.56571 -25.3862 2.05788 13.4335 -0.271852 -6.50541 -4.69687 -0.0731858 1.86858e-007 5.97642e-006 -9.99999 
